<?xml version="1.0" encoding="utf-8"?>
<!-- Generator: Adobe Illustrator 25.2.1, SVG Export Plug-In . SVG Version: 6.00 Build 0)  -->
<svg version="1.1" id="Layer_1" xmlns="http://www.w3.org/2000/svg" xmlns:xlink="http://www.w3.org/1999/xlink" x="0px" y="0px"
	 viewBox="0 0 784.04 828.54" style="enable-background:new 0 0 784.04 828.54;" xml:space="preserve">
<style type="text/css">
	.st0{fill:#FFFFFF;}
</style>
<g>
	<path d="M482.26,815.16c-7.24,0-11.62-2.96-14.02-5.44c-5.23-5.4-5.01-12.08-4.91-15.29c0-0.09,0.01-0.18,0.01-0.27
		c-9.9-25.42,1.38-46.57,10.48-63.63c1.53-2.87,3.05-5.72,4.44-8.54c19.11-38.83,32.4-81.11,39.51-125.65
		c4.96-31.14,2.36-62.34-0.4-95.38c-0.93-11.16-1.9-22.68-2.53-34.13c-0.06-0.05-0.11-0.1-0.16-0.16c-1.06-1.06-2.1-2.15-3.03-3.32
		c-34.48-43.45-64.15-90.79-92.84-136.57c-8.35-13.33-16.7-26.65-25.18-39.9c-35.84-56.03-74.51-115.46-118.58-172.05
		c-5.35-6.86-10.04-14.04-14.58-20.97c-7.52-11.49-14.63-22.35-24.08-31.14c-1.6-1.48-3.06-3.09-4.38-4.62
		c-0.14,1.78-0.23,3.5-0.29,4.73l-0.03,0.52c-1.49,29.91,8.52,58.88,18.03,83.68c13.54,35.33,31.35,69.76,48.57,103.05l4.3,8.32
		c1.47,2.85,4.1,5.09,7.41,7.92c3.96,3.38,8.44,7.21,11.96,13.02c0.35,0.57,0.73,1.14,1.11,1.71c7.87,11.88,7.42,21.93-1.33,29.88
		c-4.52,4.1-9.09,4.96-12.12,4.96c-8.01,0-12.68-5.44-14.91-8.06c-0.17-0.2-0.33-0.39-0.49-0.58
		c-21.92-14.38-31.31-36.52-39.61-56.08c-2.3-5.42-4.47-10.54-6.86-15.46l-2.35-4.85c-14.84-30.54-30.18-62.12-38.48-96.5
		c-0.9-3.71-1.88-7.42-2.86-11.13c-5.17-19.57-11.01-41.65-4.56-65.31c-0.07-0.18-0.14-0.35-0.21-0.53
		c-0.61-1.57-1.36-3.52-1.86-5.74c-3.35-14.91,6.55-23.98,11.3-28.33c1.06-0.97,2.07-1.9,2.68-2.59c5.33-6.08,11.4-7.35,15.56-7.35
		c6.84,0,12.2,3.35,16.51,6.03l1.47,0.91c21.6,13.16,34.91,32.27,47.78,50.76c3.92,5.64,7.63,10.96,11.56,16.12
		c27.54,36.11,52.92,73.29,76.24,108.09c21.34,31.85,42.39,64.6,62.74,96.26c8.11,12.62,16.22,25.23,24.36,37.83
		c5.35,8.27,10.54,16.76,15.56,24.97c7.93,12.97,15.63,25.56,24.01,37.58c-8.52-61.33-17.9-113.12-41.47-162.64
		c-3.06-6.42-4.81-12.9-6.51-19.17c-0.44-1.63-0.88-3.27-1.35-4.89c-8.22-9.93-12.26-21.37-15.87-31.55
		c-1.22-3.44-2.36-6.68-3.63-9.79c-10.59-26.01-20.18-52.77-29.46-78.66l-3.56-9.93c-6.53-18.15,1.58-29.02,11.34-33.14
		c2.62-1.11,5.29-1.67,7.92-1.67c11.77,0,16.9,10.12,19.08,14.44l0.64,1.24c21.07,39.96,40.07,84.57,59.78,140.38
		c1.29,3.63,1.06,7.06,0.37,9.93c6.42,8.57,8.36,18.32,10,26.53c0.69,3.44,1.34,6.7,2.24,9.52c5.52,17.31,11.74,34.84,17.75,51.79
		c4.43,12.48,8.91,25.12,13.22,37.94c0.72-7.13,1.41-14.53,2.06-22.25c0.52-6.16,5.19-11.15,11.29-12.09
		c0.68-0.11,1.37-0.16,2.05-0.16c5.35,0,10.28,3.22,12.36,8.29c3.76,9.12,7.41,17.95,10.97,26.48c0.84,2.01,1.17,4.19,0.97,6.36
		c-4.24,46.96-7.98,93.69-11.12,138.9c-5.46,78.82-15.82,147.26-31.68,209.21c-2.37,9.28-4.49,18.91-6.53,28.22
		c-3.8,17.31-7.73,35.2-13.68,52.75c-2.5,7.39-6.36,13.39-9.77,18.69c-2.91,4.52-5.42,8.44-6.78,12.52
		c-1.56,4.7-7.11,15.66-25.1,15.98C482.67,815.16,482.33,815.16,482.26,815.16z"/>
	<path class="st0" d="M226.96,26.76c3.5,0,7.18,2.66,11.02,4.99c25.31,15.42,38.67,41.27,55.67,63.57
		c26.56,34.82,51.37,71.03,75.76,107.43c29.63,44.21,58.08,89.22,86.99,133.91c21.06,32.55,38.9,67.4,67.11,96.51
		c4.72-11.42-0.01-20.6-1.2-29.49c-8.3-61.6-17.35-123.1-44.49-180.13c-3.71-7.8-5.35-16.59-7.95-24.92
		c-10.44-11.27-13.58-26.23-19.09-39.78c-11.81-29-22.23-58.58-32.82-88.06c-2.08-5.78-3.33-13.22,3.95-16.29
		c1.01-0.43,1.91-0.62,2.72-0.62c4.05,0,5.88,4.74,7.88,8.54c23.5,44.57,42.25,91.16,59,138.59c0.81,2.29-1.57,5.7-2.47,8.6
		c11.82,9.53,10.92,24.37,14.94,36.99c15.91,49.89,36.41,98.32,48.56,149.85c4.94-28.33,8.14-56.79,10.55-85.31
		c3.76,9.14,7.43,17.99,10.99,26.54c-4.19,46.34-7.92,92.72-11.14,139.18c-4.82,69.5-13.92,138.94-31.29,206.82
		c-6.81,26.61-11.04,53.79-19.92,80c-3.95,11.67-12.81,19.92-16.58,31.31c-1.78,5.37-7.36,6.71-12.63,6.8c-0.09,0-0.17,0-0.26,0
		c-8.42,0-4.32-7.39-5.96-11.29c-10.07-23.98,4.69-43.71,13.98-62.59c20.32-41.3,33.56-84.6,40.71-129.46
		c7.1-44.54-0.55-89.45-2.88-134.17c-0.23-4.46-3.69-6.36-5.97-9.24c-43.85-55.26-79.32-116.12-117.22-175.36
		c-37.77-59.05-76.15-117.66-119.3-173.06c-13.69-17.58-23.32-38.08-40.11-53.69c-5.34-4.97-10.12-13.6-16.35-13.6
		c-0.81,0-1.65,0.15-2.52,0.47c-7.46,2.77-7.89,14.52-8.31,22.89c-1.56,31.3,7.91,60.46,18.9,89.14
		c14.92,38.94,34.37,75.72,53.48,112.72c5.01,9.7,14.66,13.21,19.82,21.74c2.92,4.81,7.74,9.75,2.23,14.75
		c-1.18,1.07-2.21,1.49-3.14,1.49c-3,0-4.96-4.45-7.49-6.07c-24.33-15.59-30.9-42.97-42.34-66.57
		c-15.47-31.89-31.48-63.92-39.87-98.65c-5.67-23.46-14.64-46.89-6.9-71.92c0.92-2.98-1.74-7-2.55-10.58
		c-2.15-9.58,6.27-13.81,10.99-19.18C223.23,27.53,225.07,26.76,226.96,26.76 M546.15,505.67c3.36-10.61,7.82-20.5,5.32-31.32
		c-0.73-3.17-1.31-6.48-5.2-6.64c-0.02,0-0.04,0-0.06,0c-1.4,0-4.13,2.02-4.02,2.8C543.78,482.21,538.75,494.77,546.15,505.67
		 M226.96,0C226.96,0,226.96,0,226.96,0c-9.78,0-18.87,4.23-25.61,11.9c-0.21,0.22-1.05,0.99-1.66,1.55
		c-5.57,5.1-20.37,18.65-15.32,41.14c0.34,1.49,0.74,2.88,1.15,4.1c-5.67,25.32,0.29,47.86,5.61,67.96
		c0.96,3.62,1.92,7.24,2.79,10.85c8.64,35.77,24.3,68.01,39.44,99.18l2.36,4.86c2.24,4.62,4.35,9.59,6.58,14.85
		c8.41,19.83,18.8,44.34,42.96,60.95c3.26,3.72,11.27,11.92,24.37,11.92c5.39,0,13.43-1.46,21.12-8.43
		c5.09-4.62,20.4-21.68,3.5-47.18c-0.28-0.42-0.56-0.84-0.82-1.25c-4.64-7.66-10.47-12.63-14.72-16.26
		c-1.5-1.28-3.77-3.22-4.25-3.95l-4.26-8.24c-17.85-34.49-34.7-67.08-47.98-101.72c-4.99-13.01-10.12-27.2-13.48-41.9
		c0.18,0.28,0.37,0.56,0.55,0.84c4.69,7.16,9.53,14.57,15.21,21.86c43.71,56.13,82.19,115.27,117.87,171.04
		c8.43,13.17,16.9,26.7,25.1,39.78c28.89,46.09,58.75,93.76,93.7,137.8c0.2,0.25,0.4,0.5,0.6,0.74c0.63,10.01,1.46,19.96,2.27,29.65
		c2.69,32.21,5.23,62.62,0.52,92.16c-6.89,43.22-19.78,84.22-38.3,121.86c-1.26,2.55-2.7,5.27-4.24,8.14
		c-9.04,16.95-22.5,42.16-12.11,72.17c0.01,5.26,0.93,14.6,8.7,22.63c4.2,4.34,11.71,9.51,23.64,9.51l0.7-0.01
		c27.33-0.47,35.69-19.37,37.6-25.16c0.82-2.48,2.91-5.73,5.33-9.49c3.63-5.65,8.16-12.69,11.19-21.64
		c6.18-18.24,10.19-36.5,14.07-54.16c2.11-9.63,4.11-18.72,6.43-27.79c16.06-62.74,26.54-131.95,32.07-211.6
		c3.13-45.1,6.86-91.74,11.1-138.62c0.39-4.33-0.28-8.7-1.95-12.71c-3.55-8.5-7.2-17.31-10.94-26.41
		c-4.17-10.14-14.03-16.58-24.73-16.58c-1.35,0-2.72,0.1-4.09,0.31c-4.46,0.69-8.54,2.46-11.97,5.03
		c-5.97-16.81-12.13-34.2-17.57-51.26c-0.67-2.11-1.25-5.01-1.86-8.07c-1.49-7.48-3.48-17.46-9.19-27.09
		c0.15-3.41-0.27-7.19-1.68-11.2c-19.93-56.43-39.17-101.6-60.56-142.16c-0.18-0.34-0.36-0.69-0.54-1.05
		c-7.31-14.45-17.74-21.77-31.01-21.78c-4.43,0-8.85,0.92-13.13,2.72c-15.86,6.69-27.8,24.75-18.73,49.99l3.6,10.04
		c9.31,25.97,18.94,52.83,29.62,79.07c1.15,2.82,2.25,5.92,3.41,9.21c3.55,10.02,7.84,22.14,16.32,33.29
		c0.2,0.72,0.39,1.45,0.6,2.19c1.77,6.52,3.77,13.91,7.34,21.42c14.17,29.78,23.08,60.67,29.79,94.26c-1.51-2.4-3.04-4.8-4.58-7.19
		c-8.12-12.55-16.21-25.13-24.29-37.71c-20.4-31.75-41.5-64.58-62.94-96.56c-23.45-34.99-48.97-72.38-76.71-108.76
		c-3.76-4.93-7.39-10.14-11.23-15.65c-13.03-18.71-27.79-39.91-51.8-54.54l-1.35-0.84C245.71,5.05,237.63,0,226.96,0L226.96,0
		L226.96,0z"/>
</g>
</svg>
