<?xml version="1.0" encoding="UTF-8"?>
<svg id="Camada_1" xmlns="http://www.w3.org/2000/svg" version="1.1" viewBox="0 0 222 222">
  <!-- Generator: Adobe Illustrator 29.8.2, SVG Export Plug-In . SVG Version: 2.1.1 Build 3)  -->
  <defs>
    <style>
      .st0 {
        fill: #fff;
      }

      .st1 {
        fill: #559fb8;
      }
    </style>
  </defs>
  <path class="st1" d="M221.3,87.38c-.07-1.19-.2-3.51-.28-5.16-.08-1.64-.21-3.82-.28-4.81-.08-1-.26-3.47-.42-5.5-.15-2.04-.31-3.95-.35-4.25-.04-.31-.17-1.66-.28-3-.11-1.34-.24-2.59-.28-2.79-.04-.2-.2-1.48-.35-2.86-.36-3.33-.81-7.01-.91-7.44-.04-.2-.2-1.31-.35-2.45-.68-5.21-1.95-12.47-3.04-17.42-.15-.7-.4-1.83-.56-2.51-.39-1.78-.85-3.58-1-3.9-.07-.15-.2-.53-.29-.84-.31-1.03-1.85-4.47-2.24-5.02-.06-.08-.5-.74-.98-1.46-.99-1.49-3.52-4.14-5.04-5.25-3.01-2.22-6.36-3.72-10.68-4.78-.74-.18-1.49-.37-2.23-.56-.52-.15-1.55-.38-3.76-.84-.63-.13-1.26-.27-1.88-.4-2.69-.65-11.44-2.08-17.14-2.8-1.14-.14-2.27-.29-2.51-.35-.42-.09-2.44-.29-6.55-.7-1.14-.11-2.72-.28-3.48-.35-.77-.08-2.15-.21-3.07-.29-.92-.07-2.43-.2-3.35-.26-3.12-.27-11.79-.77-16.59-.98C124.14,0,107.03-.12,96.41.15c-6.38.15-11.07.38-19.65.91-3.97.24-8.31.59-11.36.89-.77.08-2.37.24-3.55.35-4.98.49-12.36,1.42-15.47,1.95-.66.11-1.62.27-2.16.35-.53.07-1.48.24-2.09.35-.61.11-1.64.31-2.3.42-2.3.39-6.22,1.19-8.43,1.72-.61.15-1.72.42-2.44.59-.73.17-1.38.32-1.46.33-4.09.97-8.14,2.94-11.26,5.49-3.04,2.47-5.76,6.45-7.12,10.41-.22.61-.45,1.24-.52,1.39-.24.53-1.27,4.99-2.01,8.64-.11.61-.31,1.52-.42,2.02s-.26,1.38-.36,1.95c-.08.57-.2,1.27-.27,1.53-.21.8-1.06,6.23-1.6,10.17-.53,3.82-.88,6.59-1.18,9.41-.15,1.38-.31,2.73-.33,3-.04.26-.17,1.62-.29,3-.11,1.38-.28,3.07-.36,3.76-.29,2.56-1.02,13.73-1.38,21.6-.28,5.84-.46,18.34-.36,25.16.1,8.5.31,16.1.5,18.75.07,1.07.21,3.33.29,5.02s.2,3.85.27,4.81c.32,4.82.57,7.99.7,8.99.07.61.24,2.25.35,3.61.11,1.37.28,3,.35,3.62.08.63.24,1.98.35,3.01.35,3.3.61,5.46.84,6.9.11.77.31,2.08.42,2.93.4,3.07.88,6.05,1.39,8.78.11.61.29,1.64.42,2.3.24,1.39.78,4.17,1.17,5.92,1.34,6.15,1.92,7.99,3.5,11.01.43.84.99,1.81,1.24,2.16.24.35.59.85.77,1.12.79,1.18,3.07,3.5,4.32,4.39.21.15.61.44.88.65.28.22.54.39.61.39.06,0,.2.1.31.21.54.53,4.38,2.36,6.02,2.84.31.1.68.22.84.29.36.17,2.41.68,4.88,1.24,1.07.25,2.17.51,2.44.59.64.17,4.68.97,7.74,1.53,1.76.32,5.17.86,7.32,1.17.81.11,1.84.26,2.3.35,1.69.29,8.66,1.1,13.03,1.52,1.57.15,3.51.33,4.32.42,1.31.14,2.65.25,9.06.71.96.07,3.15.2,4.88.28,1.73.08,4.14.21,5.37.28,9.92.57,38.3.57,48.08,0,1.23-.08,3.64-.2,5.37-.28,2.97-.14,4.06-.21,8.71-.56,5.96-.46,14.73-1.31,17.7-1.73.85-.12,2.31-.32,3.28-.45,3.55-.46,8.43-1.2,11.22-1.71,3.05-.56,7.09-1.37,7.74-1.53.26-.07,1.36-.33,2.44-.59,2.41-.54,4.5-1.07,4.88-1.24.46-.17.93-.33,1.39-.49,1.14-.38,4.93-2.17,5.25-2.48.1-.1.38-.31.61-.45,1.09-.68,1.59-1.07,2.58-1.96,1.12-1.02,2.66-2.69,3.04-3.26.12-.2.46-.67.74-1.04.29-.39.53-.74.53-.79,0-.06.22-.45.49-.86.27-.42.59-1.03.71-1.37.14-.32.28-.67.33-.74.26-.35,1.24-3.12,1.66-4.7.66-2.44,1.88-8.19,2.33-10.91.11-.7.24-1.35.28-1.46.13-.31.89-5.09,1.59-9.96.15-1.07.31-2.15.35-2.37.11-.64.61-4.92.84-7.18.11-1.12.26-2.4.35-2.86s.24-1.96.35-3.35c.11-1.38.27-3.08.33-3.76.08-.7.21-2.28.29-3.55s.21-2.83.28-3.48c.08-.65.24-3.07.35-5.37.13-2.3.27-5.13.35-6.27.57-10.16.57-36.75-.06-47.2Z"/>
  <g>
    <path class="st0" d="M113.24,38.01l14.56-1.15c1.06-.08,1.97.74,1.99,1.8l1.03,48.92c.02,1.01-.77,1.84-1.77,1.88l-3.93.15c-.88.03-1.66-.55-1.86-1.41l-11.66-47.92c-.27-1.1.51-2.19,1.65-2.27Z"/>
    <path class="st0" d="M89.26,39.69l-12.74,7.72c-.95.58-1.18,1.85-.49,2.72l34.16,43.19c.53.67,1.44.89,2.21.53l4.12-1.88c.96-.44,1.36-1.59.87-2.53l-25.53-49.04c-.49-.95-1.68-1.28-2.59-.73Z"/>
    <path class="st0" d="M58.13,59.4l-8.18,13.24c-.55.89-.25,2.06.67,2.58l51.59,28.93c.85.48,1.93.21,2.45-.61l2.27-3.54c.5-.78.35-1.81-.36-2.41l-45.68-38.63c-.86-.73-2.17-.52-2.76.44Z"/>
    <path class="st0" d="M138.35,91.35l3.02,1.47c.89.43,1.96.09,2.43-.79l19.09-35.55c.53-.98.07-2.2-.97-2.6l-14.18-5.36c-1.06-.4-2.24.25-2.46,1.36l-7.94,39.44c-.17.82.25,1.65,1,2.02Z"/>
    <path class="st0" d="M150.04,100.5l1.88,3.03c.51.83,1.58,1.11,2.44.65l28.13-15.06c1.04-.56,1.3-1.94.52-2.83l-9.86-11.38c-.74-.85-2.06-.85-2.79,0l-20.15,23.4c-.53.61-.59,1.49-.17,2.18Z"/>
    <path class="st0" d="M156.7,114.62l24.07-5.88c1.16-.28,2.28.6,2.28,1.79v14.54c0,1.15-1.03,2.01-2.16,1.82l-24.07-4.22c-.88-.15-1.53-.92-1.53-1.82v-4.44c0-.85.58-1.59,1.41-1.79Z"/>
    <path class="st0" d="M151.76,132.39l22.09,12.22c1.04.57,1.27,1.97.48,2.85l-9.65,10.69c-.78.86-2.15.8-2.84-.13l-15.06-20.01c-.53-.71-.49-1.69.1-2.35l2.62-2.9c.57-.64,1.51-.79,2.26-.38Z"/>
    <path class="st0" d="M137.36,141.51l-5.11,1.31c-.82.21-1.39.94-1.39,1.79v30.61c0,1.14,1.02,2,2.14,1.82l15.31-2.52c1.13-.19,1.82-1.34,1.44-2.42l-10.2-29.4c-.31-.91-1.27-1.42-2.2-1.18Z"/>
    <path class="st0" d="M123.61,142.64l-5.78-1.66c-.82-.24-1.7.12-2.12.87l-19.58,34.77c-.54.96-.12,2.18.9,2.61l13.87,5.78c1.01.42,2.17-.13,2.48-1.18l11.48-38.89c.29-.98-.28-2.01-1.26-2.3Z"/>
    <path class="st0" d="M107.95,133.81l3.42,3.27c.75.72.76,1.92.02,2.65l-35.21,34.57c-.77.76-2.03.69-2.72-.15l-9.29-11.33c-.7-.85-.5-2.12.43-2.72l41.08-26.51c.72-.46,1.66-.37,2.27.22Z"/>
    <path class="st0" d="M102.21,122.57l1.91,5.25c.36.98-.17,2.07-1.17,2.39l-52.16,16.7c-1.01.32-2.08-.27-2.35-1.29l-3.89-14.79c-.28-1.07.44-2.15,1.54-2.3l54.13-7.16c.86-.11,1.68.38,1.97,1.2Z"/>
    <path class="st0" d="M101.78,111.71l-.32,2.82c-.11.98-.98,1.71-1.97,1.63l-59.24-4.38c-1.12-.08-1.9-1.13-1.67-2.23l3.55-16.56c.23-1.07,1.33-1.7,2.37-1.37l56.01,18.13c.83.27,1.36,1.09,1.26,1.96Z"/>
  </g>
</svg>